<svg xmlns="http://www.w3.org/2000/svg" viewBox="0 0 610.39 115.68"><title>logo</title><g id="Layer_2" data-name="Layer 2"><g id="Layer_1-2" data-name="Layer 1"><path d="M0,83.68H16.16c.32,10.24,8.16,17,22.4,17,14.56,0,22.72-6.72,22.72-17,0-11-11.2-12.8-23.84-15-16.32-2.88-35-6.08-35-29.6C2.4,20,16.8,6.88,38.72,6.88c21.44,0,35.84,12.48,36.48,31.2H59.68C59.2,28.8,52,21.92,39,21.92c-13.44,0-21,7-21,16.64,0,11,11.36,12.8,24,15,16.48,2.88,35.2,6.08,35.2,29.6,0,20-15.36,32.48-38.72,32.48C15.68,115.68.48,103.52,0,83.68Z"/><path d="M82.72,83.68V6.56l7.66,3,7.54-3v28h43.52V48.48H97.92v35.2c0,12.48,6.56,17.92,16.48,17.92S131,96.32,131,83.68V81.92h15v1.76c0,21.44-12.8,32-31.68,32S82.72,105.12,82.72,83.68Z"/><path d="M150.72,75.84V34.56h15.2V75.84c0,17.12,9.44,25.76,23.84,25.76S213.6,93,213.6,75.84V34.56h15.2V75.84c0,26.24-15.68,39.84-39,39.84S150.72,102.24,150.72,75.84Z"/><path d="M233.28,73.6c0-26.24,19.52-41.12,40.16-41.12,12.8,0,23.68,5.76,29.44,16V0l7.43,3,7.77-3V73.44c0,25.76-17.6,42.24-42.08,42.24C250.88,115.68,233.28,98.4,233.28,73.6Zm69.6.48c0-16-10.88-27.52-27-27.52-16.32,0-27.2,11.52-27.2,27.52s10.88,27.52,27.2,27.52C292,101.6,302.88,90.08,302.88,74.08Z"/><path d="M325.59,11.36a10.57,10.57,0,0,1,21.13,0,10.57,10.57,0,1,1-21.13,0Zm3.05,23.2h15.2v79h-15.2Z"/><path d="M351,74.08c0-24,17.61-41.6,42.57-41.6s42.56,17.6,42.56,41.6-17.6,41.6-42.56,41.6S351,98.08,351,74.08Zm69.77,0c0-16-10.88-27.52-27.2-27.52s-27.2,11.52-27.2,27.52,10.88,27.52,27.2,27.52S420.8,90.08,420.8,74.08Z"/><path d="M451.6,69.52A4.56,4.56,0,1,1,447,74.08a4.27,4.27,0,0,1,4.57-4.56m0-6a10.56,10.56,0,1,0,10.55,10.56A10.27,10.27,0,0,0,451.6,63.52Z"/><path d="M466.39,84.32h15.36c2.08,10.24,10.08,17.28,21.44,17.28,13.28,0,21.92-9.28,21.92-23.36,0-13.12-8.64-22.08-21.92-22.08-9.28,0-16.16,4.64-19.52,11.68l-13.6-4.16,7-54.72h54.56v13.6H488.79l-4,30.4c4.48-6.4,11.52-9.92,21.6-9.92,18.88,0,33.92,13.92,33.92,35.2,0,22.24-15.2,37.44-37.12,37.44C483.19,115.68,468.47,102.72,466.39,84.32Z"/><path d="M543.35,100.64,581.59,64.8c8-7.52,13.44-15,13.44-23.84,0-11.68-6.24-20-18.24-20-11.52,0-18.4,8.32-18.4,20.32v2.24H543.51V42.08c0-21.28,12.64-35.2,33.44-35.2S610.39,21.28,610.39,41c0,13.76-6.56,22.56-17.76,32.8L564.15,100h45v13.6H543.35Z"/></g></g></svg>